<?xml version="1.0" encoding="UTF-8" standalone="no"?>
<!DOCTYPE svg PUBLIC "-//W3C//DTD SVG 1.1//EN"
 "http://www.w3.org/Graphics/SVG/1.1/DTD/svg11.dtd">
<!-- Generated by graphviz version 2.40.1 (20161225.0304)
 -->
<!-- Title: %3 Pages: 1 -->
<svg width="415pt" height="918pt"
 viewBox="0.00 0.00 415.04 918.00" xmlns="http://www.w3.org/2000/svg" xmlns:xlink="http://www.w3.org/1999/xlink">
<g id="graph0" class="graph" transform="scale(.7921 .7921) rotate(0) translate(4 1155)">
<title>%3</title>
<polygon fill="#ffffff" stroke="transparent" points="-4,4 -4,-1155 520,-1155 520,4 -4,4"/>
<!-- 140263521884816 -->
<g id="node1" class="node">
<title>140263521884816</title>
<polygon fill="#caff70" stroke="#000000" points="370.5,-420 280.5,-420 280.5,-399 370.5,-399 370.5,-420"/>
<text text-anchor="middle" x="325.5" y="-406.4" font-family="Times,serif" font-size="12.00" fill="#000000">TanhBackward</text>
</g>
<!-- 140263501621400 -->
<g id="node2" class="node">
<title>140263501621400</title>
<polygon fill="#d3d3d3" stroke="#000000" points="226.5,-477 134.5,-477 134.5,-456 226.5,-456 226.5,-477"/>
<text text-anchor="middle" x="180.5" y="-463.4" font-family="Times,serif" font-size="12.00" fill="#000000">AddBackward0</text>
</g>
<!-- 140263501621400&#45;&gt;140263521884816 -->
<g id="edge1" class="edge">
<title>140263501621400&#45;&gt;140263521884816</title>
<path fill="none" stroke="#000000" d="M207.4336,-455.9123C230.4258,-446.874 263.7002,-433.7937 289.0686,-423.8213"/>
<polygon fill="#000000" stroke="#000000" points="290.6844,-426.9469 298.7107,-420.031 288.1234,-420.4322 290.6844,-426.9469"/>
</g>
<!-- 140263501214104 -->
<g id="node31" class="node">
<title>140263501214104</title>
<polygon fill="#d3d3d3" stroke="#000000" points="114.5,-420 24.5,-420 24.5,-399 114.5,-399 114.5,-420"/>
<text text-anchor="middle" x="69.5" y="-406.4" font-family="Times,serif" font-size="12.00" fill="#000000">SubBackward0</text>
</g>
<!-- 140263501621400&#45;&gt;140263501214104 -->
<g id="edge31" class="edge">
<title>140263501621400&#45;&gt;140263501214104</title>
<path fill="none" stroke="#000000" d="M159.8819,-455.9123C142.7482,-447.114 118.1558,-434.4854 98.9481,-424.622"/>
<polygon fill="#000000" stroke="#000000" points="100.5022,-421.4856 90.0077,-420.031 97.3045,-427.7126 100.5022,-421.4856"/>
</g>
<!-- 140263501214160 -->
<g id="node38" class="node">
<title>140263501214160</title>
<polygon fill="#d3d3d3" stroke="#000000" points="207.5,-363 111.5,-363 111.5,-342 207.5,-342 207.5,-363"/>
<text text-anchor="middle" x="159.5" y="-349.4" font-family="Times,serif" font-size="12.00" fill="#000000">RsubBackward1</text>
</g>
<!-- 140263501621400&#45;&gt;140263501214160 -->
<g id="edge42" class="edge">
<title>140263501621400&#45;&gt;140263501214160</title>
<path fill="none" stroke="#000000" d="M174.8195,-455.7673C170.2682,-446.5622 164.2111,-432.7972 161.5,-420 158.235,-404.5881 157.8466,-386.7579 158.2145,-373.2945"/>
<polygon fill="#000000" stroke="#000000" points="161.7173,-373.3038 158.6548,-363.1612 154.7239,-372.9998 161.7173,-373.3038"/>
</g>
<!-- 140263501214328 -->
<g id="node40" class="node">
<title>140263501214328</title>
<polygon fill="#d3d3d3" stroke="#000000" points="262,-420 171,-420 171,-399 262,-399 262,-420"/>
<text text-anchor="middle" x="216.5" y="-406.4" font-family="Times,serif" font-size="12.00" fill="#000000">MulBackward0</text>
</g>
<!-- 140263501621400&#45;&gt;140263501214328 -->
<g id="edge45" class="edge">
<title>140263501621400&#45;&gt;140263501214328</title>
<path fill="none" stroke="#000000" d="M187.2713,-455.7787C192.0482,-448.2153 198.5818,-437.8705 204.2603,-428.8794"/>
<polygon fill="#000000" stroke="#000000" points="207.3783,-430.4971 209.759,-420.1732 201.4598,-426.7591 207.3783,-430.4971"/>
</g>
<!-- 140263521884928 -->
<g id="node3" class="node">
<title>140263521884928</title>
<polygon fill="#caff70" stroke="#000000" points="201.5,-534 97.5,-534 97.5,-513 201.5,-513 201.5,-534"/>
<text text-anchor="middle" x="149.5" y="-520.4" font-family="Times,serif" font-size="12.00" fill="#000000">AddmmBackward</text>
</g>
<!-- 140263521884928&#45;&gt;140263501621400 -->
<g id="edge2" class="edge">
<title>140263521884928&#45;&gt;140263501621400</title>
<path fill="none" stroke="#000000" d="M155.3309,-512.7787C159.401,-505.2949 164.9521,-495.088 169.8056,-486.1638"/>
<polygon fill="#000000" stroke="#000000" points="172.9922,-487.6303 174.6953,-477.1732 166.8428,-484.2858 172.9922,-487.6303"/>
</g>
<!-- 140263521884928&#45;&gt;140263501214104 -->
<g id="edge32" class="edge">
<title>140263521884928&#45;&gt;140263501214104</title>
<path fill="none" stroke="#000000" d="M142.1172,-512.9795C128.6719,-493.82 100.0134,-452.9816 82.9949,-428.7303"/>
<polygon fill="#000000" stroke="#000000" points="85.7076,-426.5027 77.0983,-420.3276 79.9777,-430.5237 85.7076,-426.5027"/>
</g>
<!-- 140263501621848 -->
<g id="node4" class="node">
<title>140263501621848</title>
<polygon fill="#add8e6" stroke="#000000" points="192,-604 109,-604 109,-570 192,-570 192,-604"/>
<text text-anchor="middle" x="150.5" y="-590.4" font-family="Times,serif" font-size="12.00" fill="#000000">mu_layer.bias</text>
<text text-anchor="middle" x="150.5" y="-577.4" font-family="Times,serif" font-size="12.00" fill="#000000"> (2)</text>
</g>
<!-- 140263501621848&#45;&gt;140263521884928 -->
<g id="edge3" class="edge">
<title>140263501621848&#45;&gt;140263521884928</title>
<path fill="none" stroke="#000000" d="M150.232,-569.9832C150.1081,-562.1157 149.9598,-552.6973 149.8292,-544.4019"/>
<polygon fill="#000000" stroke="#000000" points="153.3283,-544.3123 149.6712,-534.3687 146.3292,-544.4226 153.3283,-544.3123"/>
</g>
<!-- 140263501621904 -->
<g id="node5" class="node">
<title>140263501621904</title>
<polygon fill="#d3d3d3" stroke="#000000" points="293.5,-794.5 199.5,-794.5 199.5,-773.5 293.5,-773.5 293.5,-794.5"/>
<text text-anchor="middle" x="246.5" y="-780.9" font-family="Times,serif" font-size="12.00" fill="#000000">ReluBackward0</text>
</g>
<!-- 140263501621904&#45;&gt;140263521884928 -->
<g id="edge4" class="edge">
<title>140263501621904&#45;&gt;140263521884928</title>
<path fill="none" stroke="#000000" d="M246.4481,-773.398C245.8458,-740.7699 240.6437,-639.8489 200.5,-570 193.9427,-558.5905 183.625,-548.4122 173.9803,-540.5086"/>
<polygon fill="#000000" stroke="#000000" points="175.8412,-537.5232 165.7894,-534.1748 171.5592,-543.0608 175.8412,-537.5232"/>
</g>
<!-- 140263501622744 -->
<g id="node20" class="node">
<title>140263501622744</title>
<polygon fill="#d3d3d3" stroke="#000000" points="419.5,-731 315.5,-731 315.5,-710 419.5,-710 419.5,-731"/>
<text text-anchor="middle" x="367.5" y="-717.4" font-family="Times,serif" font-size="12.00" fill="#000000">AddmmBackward</text>
</g>
<!-- 140263501621904&#45;&gt;140263501622744 -->
<g id="edge21" class="edge">
<title>140263501621904&#45;&gt;140263501622744</title>
<path fill="none" stroke="#000000" d="M266.7527,-773.3715C286.2966,-763.115 316.0957,-747.4767 338.221,-735.8654"/>
<polygon fill="#000000" stroke="#000000" points="339.9529,-738.9093 347.1812,-731.1631 336.7001,-732.7109 339.9529,-738.9093"/>
</g>
<!-- 140263501622072 -->
<g id="node6" class="node">
<title>140263501622072</title>
<polygon fill="#d3d3d3" stroke="#000000" points="298.5,-864.5 194.5,-864.5 194.5,-843.5 298.5,-843.5 298.5,-864.5"/>
<text text-anchor="middle" x="246.5" y="-850.9" font-family="Times,serif" font-size="12.00" fill="#000000">AddmmBackward</text>
</g>
<!-- 140263501622072&#45;&gt;140263501621904 -->
<g id="edge5" class="edge">
<title>140263501622072&#45;&gt;140263501621904</title>
<path fill="none" stroke="#000000" d="M246.5,-843.3685C246.5,-833.1925 246.5,-817.5606 246.5,-804.8912"/>
<polygon fill="#000000" stroke="#000000" points="250.0001,-804.7315 246.5,-794.7315 243.0001,-804.7316 250.0001,-804.7315"/>
</g>
<!-- 140263501622296 -->
<g id="node7" class="node">
<title>140263501622296</title>
<polygon fill="#add8e6" stroke="#000000" points="181,-941 110,-941 110,-907 181,-907 181,-941"/>
<text text-anchor="middle" x="145.5" y="-927.4" font-family="Times,serif" font-size="12.00" fill="#000000">net.1.0.bias</text>
<text text-anchor="middle" x="145.5" y="-914.4" font-family="Times,serif" font-size="12.00" fill="#000000"> (64)</text>
</g>
<!-- 140263501622296&#45;&gt;140263501622072 -->
<g id="edge6" class="edge">
<title>140263501622296&#45;&gt;140263501622072</title>
<path fill="none" stroke="#000000" d="M170.2074,-906.8761C186.2711,-895.7428 207.0943,-881.3109 222.9269,-870.3378"/>
<polygon fill="#000000" stroke="#000000" points="224.9221,-873.2134 231.1474,-864.6404 220.9347,-867.4601 224.9221,-873.2134"/>
</g>
<!-- 140263501622240 -->
<g id="node8" class="node">
<title>140263501622240</title>
<polygon fill="#d3d3d3" stroke="#000000" points="293.5,-934.5 199.5,-934.5 199.5,-913.5 293.5,-913.5 293.5,-934.5"/>
<text text-anchor="middle" x="246.5" y="-920.9" font-family="Times,serif" font-size="12.00" fill="#000000">ReluBackward0</text>
</g>
<!-- 140263501622240&#45;&gt;140263501622072 -->
<g id="edge7" class="edge">
<title>140263501622240&#45;&gt;140263501622072</title>
<path fill="none" stroke="#000000" d="M246.5,-913.3685C246.5,-903.1925 246.5,-887.5606 246.5,-874.8912"/>
<polygon fill="#000000" stroke="#000000" points="250.0001,-874.7315 246.5,-864.7315 243.0001,-874.7316 250.0001,-874.7315"/>
</g>
<!-- 140263501622408 -->
<g id="node9" class="node">
<title>140263501622408</title>
<polygon fill="#d3d3d3" stroke="#000000" points="295.5,-1004.5 191.5,-1004.5 191.5,-983.5 295.5,-983.5 295.5,-1004.5"/>
<text text-anchor="middle" x="243.5" y="-990.9" font-family="Times,serif" font-size="12.00" fill="#000000">AddmmBackward</text>
</g>
<!-- 140263501622408&#45;&gt;140263501622240 -->
<g id="edge8" class="edge">
<title>140263501622408&#45;&gt;140263501622240</title>
<path fill="none" stroke="#000000" d="M243.9556,-983.3685C244.3917,-973.1925 245.0617,-957.5606 245.6047,-944.8912"/>
<polygon fill="#000000" stroke="#000000" points="249.1086,-944.8723 246.0401,-934.7315 242.115,-944.5725 249.1086,-944.8723"/>
</g>
<!-- 140263501622520 -->
<g id="node10" class="node">
<title>140263501622520</title>
<polygon fill="#add8e6" stroke="#000000" points="234,-1081 163,-1081 163,-1047 234,-1047 234,-1081"/>
<text text-anchor="middle" x="198.5" y="-1067.4" font-family="Times,serif" font-size="12.00" fill="#000000">net.0.0.bias</text>
<text text-anchor="middle" x="198.5" y="-1054.4" font-family="Times,serif" font-size="12.00" fill="#000000"> (64)</text>
</g>
<!-- 140263501622520&#45;&gt;140263501622408 -->
<g id="edge9" class="edge">
<title>140263501622520&#45;&gt;140263501622408</title>
<path fill="none" stroke="#000000" d="M209.6236,-1046.6966C216.1458,-1036.551 224.3987,-1023.7131 231.1257,-1013.2488"/>
<polygon fill="#000000" stroke="#000000" points="234.0993,-1015.0957 236.5628,-1004.7913 228.211,-1011.3104 234.0993,-1015.0957"/>
</g>
<!-- 140263501622576 -->
<g id="node11" class="node">
<title>140263501622576</title>
<polygon fill="#d3d3d3" stroke="#000000" points="325,-1074.5 252,-1074.5 252,-1053.5 325,-1053.5 325,-1074.5"/>
<text text-anchor="middle" x="288.5" y="-1060.9" font-family="Times,serif" font-size="12.00" fill="#000000">TBackward</text>
</g>
<!-- 140263501622576&#45;&gt;140263501622408 -->
<g id="edge10" class="edge">
<title>140263501622576&#45;&gt;140263501622408</title>
<path fill="none" stroke="#000000" d="M281.6655,-1053.3685C274.8594,-1042.7814 264.2569,-1026.2886 255.9525,-1013.3705"/>
<polygon fill="#000000" stroke="#000000" points="258.7506,-1011.2507 250.3989,-1004.7315 252.8623,-1015.036 258.7506,-1011.2507"/>
</g>
<!-- 140263501622688 -->
<g id="node12" class="node">
<title>140263501622688</title>
<polygon fill="#add8e6" stroke="#000000" points="330.5,-1151 246.5,-1151 246.5,-1117 330.5,-1117 330.5,-1151"/>
<text text-anchor="middle" x="288.5" y="-1137.4" font-family="Times,serif" font-size="12.00" fill="#000000">net.0.0.weight</text>
<text text-anchor="middle" x="288.5" y="-1124.4" font-family="Times,serif" font-size="12.00" fill="#000000"> (64, 2)</text>
</g>
<!-- 140263501622688&#45;&gt;140263501622576 -->
<g id="edge11" class="edge">
<title>140263501622688&#45;&gt;140263501622576</title>
<path fill="none" stroke="#000000" d="M288.5,-1116.6966C288.5,-1107.0634 288.5,-1095.003 288.5,-1084.8518"/>
<polygon fill="#000000" stroke="#000000" points="292.0001,-1084.7912 288.5,-1074.7913 285.0001,-1084.7913 292.0001,-1084.7912"/>
</g>
<!-- 140263501622128 -->
<g id="node13" class="node">
<title>140263501622128</title>
<polygon fill="#d3d3d3" stroke="#000000" points="390,-934.5 317,-934.5 317,-913.5 390,-913.5 390,-934.5"/>
<text text-anchor="middle" x="353.5" y="-920.9" font-family="Times,serif" font-size="12.00" fill="#000000">TBackward</text>
</g>
<!-- 140263501622128&#45;&gt;140263501622072 -->
<g id="edge12" class="edge">
<title>140263501622128&#45;&gt;140263501622072</title>
<path fill="none" stroke="#000000" d="M337.249,-913.3685C319.6284,-901.841 291.3059,-883.3123 270.9873,-870.0197"/>
<polygon fill="#000000" stroke="#000000" points="272.8378,-867.0479 262.5533,-864.5022 269.0056,-872.9057 272.8378,-867.0479"/>
</g>
<!-- 140263501622464 -->
<g id="node14" class="node">
<title>140263501622464</title>
<polygon fill="#add8e6" stroke="#000000" points="397.5,-1011 313.5,-1011 313.5,-977 397.5,-977 397.5,-1011"/>
<text text-anchor="middle" x="355.5" y="-997.4" font-family="Times,serif" font-size="12.00" fill="#000000">net.1.0.weight</text>
<text text-anchor="middle" x="355.5" y="-984.4" font-family="Times,serif" font-size="12.00" fill="#000000"> (64, 64)</text>
</g>
<!-- 140263501622464&#45;&gt;140263501622128 -->
<g id="edge13" class="edge">
<title>140263501622464&#45;&gt;140263501622128</title>
<path fill="none" stroke="#000000" d="M355.0056,-976.6966C354.7304,-967.0634 354.3858,-955.003 354.0958,-944.8518"/>
<polygon fill="#000000" stroke="#000000" points="357.5926,-944.6872 353.8083,-934.7913 350.5954,-944.8872 357.5926,-944.6872"/>
</g>
<!-- 140263501621960 -->
<g id="node15" class="node">
<title>140263501621960</title>
<polygon fill="#d3d3d3" stroke="#000000" points="91,-597.5 18,-597.5 18,-576.5 91,-576.5 91,-597.5"/>
<text text-anchor="middle" x="54.5" y="-583.9" font-family="Times,serif" font-size="12.00" fill="#000000">TBackward</text>
</g>
<!-- 140263501621960&#45;&gt;140263521884928 -->
<g id="edge14" class="edge">
<title>140263501621960&#45;&gt;140263521884928</title>
<path fill="none" stroke="#000000" d="M70.6155,-576.2281C85.5818,-566.2242 108.0723,-551.1911 125.2142,-539.7331"/>
<polygon fill="#000000" stroke="#000000" points="127.2538,-542.5798 133.6225,-534.1128 123.3638,-536.7601 127.2538,-542.5798"/>
</g>
<!-- 140263501622184 -->
<g id="node16" class="node">
<title>140263501622184</title>
<polygon fill="#add8e6" stroke="#000000" points="102.5,-674 6.5,-674 6.5,-640 102.5,-640 102.5,-674"/>
<text text-anchor="middle" x="54.5" y="-660.4" font-family="Times,serif" font-size="12.00" fill="#000000">mu_layer.weight</text>
<text text-anchor="middle" x="54.5" y="-647.4" font-family="Times,serif" font-size="12.00" fill="#000000"> (2, 64)</text>
</g>
<!-- 140263501622184&#45;&gt;140263501621960 -->
<g id="edge15" class="edge">
<title>140263501622184&#45;&gt;140263501621960</title>
<path fill="none" stroke="#000000" d="M54.5,-639.6966C54.5,-630.0634 54.5,-618.003 54.5,-607.8518"/>
<polygon fill="#000000" stroke="#000000" points="58.0001,-607.7912 54.5,-597.7913 51.0001,-607.7913 58.0001,-607.7912"/>
</g>
<!-- 140263501621736 -->
<g id="node17" class="node">
<title>140263501621736</title>
<polygon fill="#d3d3d3" stroke="#000000" points="311,-534 220,-534 220,-513 311,-513 311,-534"/>
<text text-anchor="middle" x="265.5" y="-520.4" font-family="Times,serif" font-size="12.00" fill="#000000">MulBackward0</text>
</g>
<!-- 140263501621736&#45;&gt;140263501621400 -->
<g id="edge16" class="edge">
<title>140263501621736&#45;&gt;140263501621400</title>
<path fill="none" stroke="#000000" d="M249.5122,-512.7787C236.9274,-504.3396 219.1788,-492.4376 204.8325,-482.8171"/>
<polygon fill="#000000" stroke="#000000" points="206.671,-479.8359 196.4162,-477.1732 202.7723,-485.6497 206.671,-479.8359"/>
</g>
<!-- 140263501622016 -->
<g id="node18" class="node">
<title>140263501622016</title>
<polygon fill="#d3d3d3" stroke="#000000" points="417,-597.5 332,-597.5 332,-576.5 417,-576.5 417,-597.5"/>
<text text-anchor="middle" x="374.5" y="-583.9" font-family="Times,serif" font-size="12.00" fill="#000000">ExpBackward</text>
</g>
<!-- 140263501622016&#45;&gt;140263501621736 -->
<g id="edge17" class="edge">
<title>140263501622016&#45;&gt;140263501621736</title>
<path fill="none" stroke="#000000" d="M356.0096,-576.2281C338.6014,-566.0866 312.3209,-550.7764 292.5563,-539.2622"/>
<polygon fill="#000000" stroke="#000000" points="294.1198,-536.1224 283.7173,-534.1128 290.5961,-542.1709 294.1198,-536.1224"/>
</g>
<!-- 140263501214048 -->
<g id="node33" class="node">
<title>140263501214048</title>
<polygon fill="#d3d3d3" stroke="#000000" points="422,-534 329,-534 329,-513 422,-513 422,-534"/>
<text text-anchor="middle" x="375.5" y="-520.4" font-family="Times,serif" font-size="12.00" fill="#000000">PowBackward0</text>
</g>
<!-- 140263501622016&#45;&gt;140263501214048 -->
<g id="edge35" class="edge">
<title>140263501622016&#45;&gt;140263501214048</title>
<path fill="none" stroke="#000000" d="M374.6696,-576.2281C374.8069,-567.5091 375.0044,-554.9699 375.1723,-544.3068"/>
<polygon fill="#000000" stroke="#000000" points="378.6749,-544.1667 375.3329,-534.1128 371.6757,-544.0564 378.6749,-544.1667"/>
</g>
<!-- 140263501623192 -->
<g id="node34" class="node">
<title>140263501623192</title>
<polygon fill="#d3d3d3" stroke="#000000" points="493,-249 408,-249 408,-228 493,-228 493,-249"/>
<text text-anchor="middle" x="450.5" y="-235.4" font-family="Times,serif" font-size="12.00" fill="#000000">LogBackward</text>
</g>
<!-- 140263501622016&#45;&gt;140263501623192 -->
<g id="edge37" class="edge">
<title>140263501622016&#45;&gt;140263501623192</title>
<path fill="none" stroke="#000000" d="M389.4475,-576.4516C402.11,-566.7742 419.8566,-551.341 430.5,-534 446.8674,-507.3331 450.5,-497.7892 450.5,-466.5 450.5,-466.5 450.5,-466.5 450.5,-352.5 450.5,-319.9922 450.5,-282.2701 450.5,-259.4067"/>
<polygon fill="#000000" stroke="#000000" points="454.0001,-259.1875 450.5,-249.1875 447.0001,-259.1875 454.0001,-259.1875"/>
</g>
<!-- 140263501622856 -->
<g id="node19" class="node">
<title>140263501622856</title>
<polygon fill="#d3d3d3" stroke="#000000" points="417,-667.5 320,-667.5 320,-646.5 417,-646.5 417,-667.5"/>
<text text-anchor="middle" x="368.5" y="-653.9" font-family="Times,serif" font-size="12.00" fill="#000000">ClampBackward</text>
</g>
<!-- 140263501622856&#45;&gt;140263501622016 -->
<g id="edge18" class="edge">
<title>140263501622856&#45;&gt;140263501622016</title>
<path fill="none" stroke="#000000" d="M369.4113,-646.3685C370.2835,-636.1925 371.6234,-620.5606 372.7093,-607.8912"/>
<polygon fill="#000000" stroke="#000000" points="376.2133,-607.9939 373.5802,-597.7315 369.2388,-607.3961 376.2133,-607.9939"/>
</g>
<!-- 140263501622744&#45;&gt;140263501622856 -->
<g id="edge19" class="edge">
<title>140263501622744&#45;&gt;140263501622856</title>
<path fill="none" stroke="#000000" d="M367.6696,-709.7281C367.8069,-701.0091 368.0044,-688.4699 368.1723,-677.8068"/>
<polygon fill="#000000" stroke="#000000" points="371.6749,-677.6667 368.3329,-667.6128 364.6757,-677.5564 371.6749,-677.6667"/>
</g>
<!-- 140263501622912 -->
<g id="node21" class="node">
<title>140263501622912</title>
<polygon fill="#add8e6" stroke="#000000" points="411,-801 324,-801 324,-767 411,-767 411,-801"/>
<text text-anchor="middle" x="367.5" y="-787.4" font-family="Times,serif" font-size="12.00" fill="#000000">log_sigma.bias</text>
<text text-anchor="middle" x="367.5" y="-774.4" font-family="Times,serif" font-size="12.00" fill="#000000"> (2)</text>
</g>
<!-- 140263501622912&#45;&gt;140263501622744 -->
<g id="edge20" class="edge">
<title>140263501622912&#45;&gt;140263501622744</title>
<path fill="none" stroke="#000000" d="M367.5,-766.9832C367.5,-759.1157 367.5,-749.6973 367.5,-741.4019"/>
<polygon fill="#000000" stroke="#000000" points="371.0001,-741.3686 367.5,-731.3687 364.0001,-741.3687 371.0001,-741.3686"/>
</g>
<!-- 140263501622968 -->
<g id="node22" class="node">
<title>140263501622968</title>
<polygon fill="#d3d3d3" stroke="#000000" points="502,-794.5 429,-794.5 429,-773.5 502,-773.5 502,-794.5"/>
<text text-anchor="middle" x="465.5" y="-780.9" font-family="Times,serif" font-size="12.00" fill="#000000">TBackward</text>
</g>
<!-- 140263501622968&#45;&gt;140263501622744 -->
<g id="edge22" class="edge">
<title>140263501622968&#45;&gt;140263501622744</title>
<path fill="none" stroke="#000000" d="M448.8756,-773.2281C433.4366,-763.2242 410.2359,-748.1911 392.5527,-736.7331"/>
<polygon fill="#000000" stroke="#000000" points="394.1744,-733.6134 383.8788,-731.1128 390.3679,-739.488 394.1744,-733.6134"/>
</g>
<!-- 140263501623080 -->
<g id="node23" class="node">
<title>140263501623080</title>
<polygon fill="#add8e6" stroke="#000000" points="516,-871 415,-871 415,-837 516,-837 516,-871"/>
<text text-anchor="middle" x="465.5" y="-857.4" font-family="Times,serif" font-size="12.00" fill="#000000">log_sigma.weight</text>
<text text-anchor="middle" x="465.5" y="-844.4" font-family="Times,serif" font-size="12.00" fill="#000000"> (2, 64)</text>
</g>
<!-- 140263501623080&#45;&gt;140263501622968 -->
<g id="edge23" class="edge">
<title>140263501623080&#45;&gt;140263501622968</title>
<path fill="none" stroke="#000000" d="M465.5,-836.6966C465.5,-827.0634 465.5,-815.003 465.5,-804.8518"/>
<polygon fill="#000000" stroke="#000000" points="469.0001,-804.7912 465.5,-794.7913 462.0001,-804.7913 469.0001,-804.7912"/>
</g>
<!-- 140263521885040 -->
<g id="node24" class="node">
<title>140263521885040</title>
<polygon fill="#caff70" stroke="#000000" points="362.5,-21 272.5,-21 272.5,0 362.5,0 362.5,-21"/>
<text text-anchor="middle" x="317.5" y="-7.4" font-family="Times,serif" font-size="12.00" fill="#000000">SubBackward0</text>
</g>
<!-- 140263501621680 -->
<g id="node25" class="node">
<title>140263501621680</title>
<polygon fill="#d3d3d3" stroke="#000000" points="411,-78 318,-78 318,-57 411,-57 411,-78"/>
<text text-anchor="middle" x="364.5" y="-64.4" font-family="Times,serif" font-size="12.00" fill="#000000">SumBackward1</text>
</g>
<!-- 140263501621680&#45;&gt;140263521885040 -->
<g id="edge24" class="edge">
<title>140263501621680&#45;&gt;140263521885040</title>
<path fill="none" stroke="#000000" d="M355.6597,-56.7787C349.2262,-48.9765 340.3522,-38.2144 332.7806,-29.0318"/>
<polygon fill="#000000" stroke="#000000" points="335.3629,-26.662 326.3007,-21.1732 329.9622,-31.1153 335.3629,-26.662"/>
</g>
<!-- 140263501622632 -->
<g id="node26" class="node">
<title>140263501622632</title>
<polygon fill="#d3d3d3" stroke="#000000" points="418.5,-135 328.5,-135 328.5,-114 418.5,-114 418.5,-135"/>
<text text-anchor="middle" x="373.5" y="-121.4" font-family="Times,serif" font-size="12.00" fill="#000000">SubBackward0</text>
</g>
<!-- 140263501622632&#45;&gt;140263501621680 -->
<g id="edge25" class="edge">
<title>140263501622632&#45;&gt;140263501621680</title>
<path fill="none" stroke="#000000" d="M371.8072,-113.7787C370.6758,-106.6134 369.1503,-96.9517 367.7857,-88.3097"/>
<polygon fill="#000000" stroke="#000000" points="371.2021,-87.5049 366.1852,-78.1732 364.2878,-88.5967 371.2021,-87.5049"/>
</g>
<!-- 140263501623024 -->
<g id="node27" class="node">
<title>140263501623024</title>
<polygon fill="#d3d3d3" stroke="#000000" points="418.5,-192 328.5,-192 328.5,-171 418.5,-171 418.5,-192"/>
<text text-anchor="middle" x="373.5" y="-178.4" font-family="Times,serif" font-size="12.00" fill="#000000">SubBackward0</text>
</g>
<!-- 140263501623024&#45;&gt;140263501622632 -->
<g id="edge26" class="edge">
<title>140263501623024&#45;&gt;140263501622632</title>
<path fill="none" stroke="#000000" d="M373.5,-170.7787C373.5,-163.6134 373.5,-153.9517 373.5,-145.3097"/>
<polygon fill="#000000" stroke="#000000" points="377.0001,-145.1732 373.5,-135.1732 370.0001,-145.1732 377.0001,-145.1732"/>
</g>
<!-- 140263501623248 -->
<g id="node28" class="node">
<title>140263501623248</title>
<polygon fill="#d3d3d3" stroke="#000000" points="390,-249 301,-249 301,-228 390,-228 390,-249"/>
<text text-anchor="middle" x="345.5" y="-235.4" font-family="Times,serif" font-size="12.00" fill="#000000">DivBackward0</text>
</g>
<!-- 140263501623248&#45;&gt;140263501623024 -->
<g id="edge27" class="edge">
<title>140263501623248&#45;&gt;140263501623024</title>
<path fill="none" stroke="#000000" d="M350.7666,-227.7787C354.4428,-220.2949 359.4568,-210.088 363.8406,-201.1638"/>
<polygon fill="#000000" stroke="#000000" points="366.9894,-202.6919 368.257,-192.1732 360.7065,-199.6056 366.9894,-202.6919"/>
</g>
<!-- 140263501213824 -->
<g id="node29" class="node">
<title>140263501213824</title>
<polygon fill="#d3d3d3" stroke="#000000" points="138.5,-306 52.5,-306 52.5,-285 138.5,-285 138.5,-306"/>
<text text-anchor="middle" x="95.5" y="-292.4" font-family="Times,serif" font-size="12.00" fill="#000000">NegBackward</text>
</g>
<!-- 140263501213824&#45;&gt;140263501623248 -->
<g id="edge28" class="edge">
<title>140263501213824&#45;&gt;140263501623248</title>
<path fill="none" stroke="#000000" d="M138.7613,-285.6364C180.8573,-276.0385 244.9776,-261.4191 290.6375,-251.0087"/>
<polygon fill="#000000" stroke="#000000" points="291.6912,-254.3583 300.663,-248.7228 290.1351,-247.5334 291.6912,-254.3583"/>
</g>
<!-- 140263501213992 -->
<g id="node30" class="node">
<title>140263501213992</title>
<polygon fill="#d3d3d3" stroke="#000000" points="93,-363 0,-363 0,-342 93,-342 93,-363"/>
<text text-anchor="middle" x="46.5" y="-349.4" font-family="Times,serif" font-size="12.00" fill="#000000">PowBackward0</text>
</g>
<!-- 140263501213992&#45;&gt;140263501213824 -->
<g id="edge29" class="edge">
<title>140263501213992&#45;&gt;140263501213824</title>
<path fill="none" stroke="#000000" d="M55.7165,-341.7787C62.4237,-333.9765 71.6754,-323.2144 79.5691,-314.0318"/>
<polygon fill="#000000" stroke="#000000" points="82.46,-316.038 86.3248,-306.1732 77.1518,-311.4748 82.46,-316.038"/>
</g>
<!-- 140263501214104&#45;&gt;140263501213992 -->
<g id="edge30" class="edge">
<title>140263501214104&#45;&gt;140263501213992</title>
<path fill="none" stroke="#000000" d="M65.1739,-398.7787C62.1862,-391.3746 58.123,-381.3049 54.5496,-372.4491"/>
<polygon fill="#000000" stroke="#000000" points="57.7945,-371.137 50.8067,-363.1732 51.303,-373.7564 57.7945,-371.137"/>
</g>
<!-- 140263501213880 -->
<g id="node32" class="node">
<title>140263501213880</title>
<polygon fill="#d3d3d3" stroke="#000000" points="421,-477 330,-477 330,-456 421,-456 421,-477"/>
<text text-anchor="middle" x="375.5" y="-463.4" font-family="Times,serif" font-size="12.00" fill="#000000">MulBackward0</text>
</g>
<!-- 140263501213880&#45;&gt;140263501623248 -->
<g id="edge33" class="edge">
<title>140263501213880&#45;&gt;140263501623248</title>
<path fill="none" stroke="#000000" d="M376.6825,-455.8048C377.6606,-446.3907 378.9717,-432.3048 379.5,-420 382.0449,-360.7213 363.1392,-292.2898 352.4686,-258.9232"/>
<polygon fill="#000000" stroke="#000000" points="355.6589,-257.4206 349.2085,-249.0157 349.0096,-259.6086 355.6589,-257.4206"/>
</g>
<!-- 140263501214048&#45;&gt;140263501213880 -->
<g id="edge34" class="edge">
<title>140263501214048&#45;&gt;140263501213880</title>
<path fill="none" stroke="#000000" d="M375.5,-512.7787C375.5,-505.6134 375.5,-495.9517 375.5,-487.3097"/>
<polygon fill="#000000" stroke="#000000" points="379.0001,-487.1732 375.5,-477.1732 372.0001,-487.1732 379.0001,-487.1732"/>
</g>
<!-- 140263501623192&#45;&gt;140263501623024 -->
<g id="edge36" class="edge">
<title>140263501623192&#45;&gt;140263501623024</title>
<path fill="none" stroke="#000000" d="M436.0169,-227.7787C424.8317,-219.4988 409.1435,-207.8855 396.2813,-198.3641"/>
<polygon fill="#000000" stroke="#000000" points="398.038,-195.3099 387.9182,-192.1732 393.8732,-200.9361 398.038,-195.3099"/>
</g>
<!-- 140263501621792 -->
<g id="node35" class="node">
<title>140263501621792</title>
<polygon fill="#d3d3d3" stroke="#000000" points="310,-135 217,-135 217,-114 310,-114 310,-135"/>
<text text-anchor="middle" x="263.5" y="-121.4" font-family="Times,serif" font-size="12.00" fill="#000000">SumBackward1</text>
</g>
<!-- 140263501621792&#45;&gt;140263521885040 -->
<g id="edge38" class="edge">
<title>140263501621792&#45;&gt;140263521885040</title>
<path fill="none" stroke="#000000" d="M268.4834,-113.9795C277.479,-94.9888 296.5634,-54.6995 308.0855,-30.3751"/>
<polygon fill="#000000" stroke="#000000" points="311.2533,-31.8633 312.3711,-21.3276 304.9271,-28.8667 311.2533,-31.8633"/>
</g>
<!-- 140263501622800 -->
<g id="node36" class="node">
<title>140263501622800</title>
<polygon fill="#d3d3d3" stroke="#000000" points="309,-192 218,-192 218,-171 309,-171 309,-192"/>
<text text-anchor="middle" x="263.5" y="-178.4" font-family="Times,serif" font-size="12.00" fill="#000000">MulBackward0</text>
</g>
<!-- 140263501622800&#45;&gt;140263501621792 -->
<g id="edge39" class="edge">
<title>140263501622800&#45;&gt;140263501621792</title>
<path fill="none" stroke="#000000" d="M263.5,-170.7787C263.5,-163.6134 263.5,-153.9517 263.5,-145.3097"/>
<polygon fill="#000000" stroke="#000000" points="267.0001,-145.1732 263.5,-135.1732 260.0001,-145.1732 267.0001,-145.1732"/>
</g>
<!-- 140263501213768 -->
<g id="node37" class="node">
<title>140263501213768</title>
<polygon fill="#d3d3d3" stroke="#000000" points="308.5,-306 218.5,-306 218.5,-285 308.5,-285 308.5,-306"/>
<text text-anchor="middle" x="263.5" y="-292.4" font-family="Times,serif" font-size="12.00" fill="#000000">SubBackward0</text>
</g>
<!-- 140263501213768&#45;&gt;140263501622800 -->
<g id="edge40" class="edge">
<title>140263501213768&#45;&gt;140263501622800</title>
<path fill="none" stroke="#000000" d="M263.5,-284.9795C263.5,-266.242 263.5,-226.7701 263.5,-202.3565"/>
<polygon fill="#000000" stroke="#000000" points="267.0001,-202.3276 263.5,-192.3276 260.0001,-202.3277 267.0001,-202.3276"/>
</g>
<!-- 140263501214160&#45;&gt;140263501213768 -->
<g id="edge41" class="edge">
<title>140263501214160&#45;&gt;140263501213768</title>
<path fill="none" stroke="#000000" d="M179.0616,-341.7787C194.8952,-333.1007 217.4096,-320.7611 235.2086,-311.0059"/>
<polygon fill="#000000" stroke="#000000" points="236.939,-314.0487 244.0261,-306.1732 233.5746,-307.9102 236.939,-314.0487"/>
</g>
<!-- 140263501214216 -->
<g id="node39" class="node">
<title>140263501214216</title>
<polygon fill="#d3d3d3" stroke="#000000" points="329.5,-363 225.5,-363 225.5,-342 329.5,-342 329.5,-363"/>
<text text-anchor="middle" x="277.5" y="-349.4" font-family="Times,serif" font-size="12.00" fill="#000000">SoftplusBackward</text>
</g>
<!-- 140263501214216&#45;&gt;140263501213768 -->
<g id="edge43" class="edge">
<title>140263501214216&#45;&gt;140263501213768</title>
<path fill="none" stroke="#000000" d="M274.8667,-341.7787C273.0872,-334.5338 270.6809,-324.7367 268.5405,-316.0221"/>
<polygon fill="#000000" stroke="#000000" points="271.9058,-315.0497 266.1215,-306.1732 265.1078,-316.7194 271.9058,-315.0497"/>
</g>
<!-- 140263501214328&#45;&gt;140263501214216 -->
<g id="edge44" class="edge">
<title>140263501214328&#45;&gt;140263501214216</title>
<path fill="none" stroke="#000000" d="M227.9736,-398.7787C236.579,-390.7376 248.5489,-379.5527 258.5653,-370.1931"/>
<polygon fill="#000000" stroke="#000000" points="261.1608,-372.558 266.0778,-363.1732 256.3816,-367.4434 261.1608,-372.558"/>
</g>
</g>
</svg>
